<svg width="24" height="24" viewBox="0 0 24 24" fill="none" xmlns="http://www.w3.org/2000/svg">
<g clip-path="url(#clip0)">
<rect width="24" height="24" fill="white"/>
<path d="M19.3065 12.5241L22.5873 15.45C21.5813 17.8124 19.9808 19.6904 17.9011 21.0629C14.0856 19.1871 11.2784 17.467 8.7773 15.3596C6.28591 13.2603 4.0637 10.7478 1.44571 7.24719C2.59602 5.2676 4.31716 3.70272 6.40027 2.09735L10.278 5.15615L9.99276 5.50186C9.48447 6.11785 8.89564 6.83138 8.57309 7.22202C8.25921 7.60217 8.28526 8.03403 8.33291 8.26599C8.38181 8.50397 8.48574 8.71586 8.5783 8.87666C8.76872 9.20747 9.05704 9.56831 9.37299 9.92078C10.0167 10.6389 10.9237 11.4851 11.8534 12.2663C12.783 13.0476 13.7721 13.7947 14.5889 14.3038C14.9896 14.5535 15.3943 14.7749 15.7527 14.9046C15.9267 14.9676 16.1546 15.0333 16.3993 15.0389C16.6399 15.0444 17.0723 14.99 17.3883 14.6071C17.7976 14.1114 18.4356 13.4285 18.9871 12.8545C19.099 12.738 19.2064 12.627 19.3065 12.5241Z" stroke="#287DFA" stroke-width="2"/>
</g>
<defs>
<clipPath id="clip0">
<rect width="24" height="24" fill="white"/>
</clipPath>
</defs>
</svg>
